<svg width="34" height="34" viewBox="0 0 34 34" fill="none" xmlns="http://www.w3.org/2000/svg">
<path d="M9.27275 10.0455C10.1263 10.0455 10.8182 9.35358 10.8182 8.50004C10.8182 7.64651 10.1263 6.95459 9.27275 6.95459C8.41922 6.95459 7.72729 7.64651 7.72729 8.50004C7.72729 9.35358 8.41922 10.0455 9.27275 10.0455Z" fill="white"/>
<path d="M24.7273 10.0455C25.5809 10.0455 26.2728 9.35358 26.2728 8.50004C26.2728 7.64651 25.5809 6.95459 24.7273 6.95459C23.8738 6.95459 23.1819 7.64651 23.1819 8.50004C23.1819 9.35358 23.8738 10.0455 24.7273 10.0455Z" fill="white"/>
<path fill-rule="evenodd" clip-rule="evenodd" d="M6.72729 13.1365C6.72729 12.5842 7.17501 12.1365 7.72729 12.1365H26.2727C26.825 12.1365 27.2727 12.5842 27.2727 13.1365C27.2727 15.4268 26.0515 17.6164 24.2106 19.206C22.3595 20.8043 19.812 21.8637 17.0004 21.8637C11.4443 21.8637 7.1462 18.0935 6.73474 13.2591C6.72983 13.2189 6.72729 13.178 6.72729 13.1365ZM8.90095 14.1365C9.69257 17.3292 12.795 19.8637 17.0004 19.8637C19.31 19.8637 21.3987 18.9916 22.9035 17.6922C24.1004 16.6587 24.8849 15.3968 25.1616 14.1365H8.90095Z" fill="white"/>
<path fill-rule="evenodd" clip-rule="evenodd" d="M0.54541 6.73542C0.54541 3.74195 2.97584 1.31812 5.97026 1.31812H28.0289C31.0234 1.31812 33.4536 3.74194 33.4545 6.73511V21.1439C33.4545 24.1024 31.2333 26.4999 28.2045 26.4999H23.4182C22.8404 26.4999 22.4397 27.0622 22.617 27.6003L24.1095 31.3084C24.2685 31.7034 24.1598 32.1559 23.8387 32.4357C23.5177 32.7155 23.0546 32.7612 22.685 32.5496L14.9978 28.1497L14.9927 28.1468C13.2349 27.1269 11.2429 26.5789 9.21024 26.5562L9.20338 26.5561L6.13561 26.5007C3.21447 26.4957 0.54541 24.2018 0.54541 21.1447V6.73542ZM5.97026 3.31812C4.07719 3.31812 2.54541 4.84973 2.54541 6.73542V21.1447C2.54541 22.9634 4.18247 24.5007 6.14512 24.5007L6.16316 24.5009L9.23262 24.5563C9.23373 24.5563 9.23485 24.5563 9.23597 24.5563C11.6113 24.5835 13.9392 25.2239 15.9938 26.4153C15.9946 26.4158 15.9955 26.4164 15.9964 26.4169L21.1786 29.383L20.7519 28.3229C20.7465 28.3094 20.7413 28.2957 20.7365 28.2819C20.0845 26.4318 21.461 24.4999 23.4182 24.4999H28.2045C30.0632 24.4999 31.4545 23.0646 31.4545 21.1439V6.73574C31.4545 6.73563 31.4545 6.73584 31.4545 6.73574C31.4537 4.84989 29.9218 3.31812 28.0289 3.31812H5.97026Z" fill="white"/>
</svg>
