<?xml version="1.0" encoding="utf-8"?>
<!-- Generator: Adobe Illustrator 22.0.1, SVG Export Plug-In . SVG Version: 6.00 Build 0)  -->
<svg version="1.1" id="Layer_1" xmlns="http://www.w3.org/2000/svg" xmlns:xlink="http://www.w3.org/1999/xlink" x="0px" y="0px"
	 viewBox="0 0 30 30" style="enable-background:new 0 0 30 30;" xml:space="preserve">
<style type="text/css">
	.st0{fill:none;stroke:#00a0ae;stroke-width:2;stroke-linecap:round;stroke-linejoin:round;stroke-miterlimit:10;}
	.st1{fill:none;}
</style>
<g>
	<path id="Path_4834_1_" class="st0" d="M24.4,5.7H5.6c-1.7,0-3.1,1.4-3.1,3.1l0,0v12.3c0,1.7,1.4,3.1,3.1,3.1l0,0h11.6
		c0.5,0,0.9,0.1,1.3,0.4c0.4,0.4,2.6,3,3,3.4s1.3,0.4,1.3-0.4v-3.4h1.6c1.7,0,3.1-1.4,3.1-3.1l0,0V8.8C27.5,7.1,26.1,5.7,24.4,5.7
		L24.4,5.7z"/>
	<g>
		<line id="Line_6251_1_" class="st0" x1="7.3" y1="10.4" x2="22.7" y2="10.4"/>
		<line id="Line_6252_1_" class="st0" x1="7.3" y1="15" x2="22.7" y2="15"/>
		<line id="Line_6253_1_" class="st0" x1="7.3" y1="19.6" x2="22.7" y2="19.6"/>
	</g>
</g>
<rect class="st1" width="30" height="30"/>
</svg>
