<svg width="34" height="34" viewBox="0 0 34 34" fill="none" xmlns="http://www.w3.org/2000/svg">
<path d="M9.27275 10.0455C10.1263 10.0455 10.8182 9.35358 10.8182 8.50004C10.8182 7.64651 10.1263 6.95459 9.27275 6.95459C8.41922 6.95459 7.72729 7.64651 7.72729 8.50004C7.72729 9.35358 8.41922 10.0455 9.27275 10.0455Z" fill="#2E6C68"/>
<path d="M24.7273 10.0455C25.5809 10.0455 26.2728 9.35358 26.2728 8.50004C26.2728 7.64651 25.5809 6.95459 24.7273 6.95459C23.8738 6.95459 23.1819 7.64651 23.1819 8.50004C23.1819 9.35358 23.8738 10.0455 24.7273 10.0455Z" fill="#2E6C68"/>
<path d="M26.2727 13.1365C26.2727 17.0005 22.1216 20.8637 17.0004 20.8637C11.8791 20.8637 8.07066 17.4047 7.72801 13.1365H7.72729H26.2727Z" stroke="#2E6C68" stroke-width="2" stroke-miterlimit="10" stroke-linecap="round" stroke-linejoin="round"/>
<path d="M21.6796 27.9495C21.2579 26.7529 22.1477 25.4999 23.4182 25.4999H28.2045C30.6482 25.4999 32.4545 23.5835 32.4545 21.1439V6.73542C32.4537 4.29584 30.4726 2.31812 28.0289 2.31812H5.97026C3.52651 2.31812 1.54541 4.29584 1.54541 6.73542V21.1447C1.54541 23.5843 3.70137 25.5007 6.14512 25.5007L9.22143 25.5562C11.4265 25.5809 13.5876 26.1754 15.4945 27.2818L23.1818 31.6818L21.6796 27.9495Z" stroke="#2E6C68" stroke-width="2" stroke-miterlimit="10" stroke-linecap="round" stroke-linejoin="round"/>
</svg>
